<?xml version="1.0" standalone="no"?><!DOCTYPE svg PUBLIC "-//W3C//DTD SVG 1.1//EN" "http://www.w3.org/Graphics/SVG/1.1/DTD/svg11.dtd"><svg t="1547798721549" class="icon" style="" viewBox="0 0 1024 1024" version="1.1" xmlns="http://www.w3.org/2000/svg" p-id="11105" data-spm-anchor-id="a313x.7781069.0.i1" xmlns:xlink="http://www.w3.org/1999/xlink" width="200" height="200"><defs><style type="text/css"></style></defs><path d="M308.48 995.2a124.16 124.16 0 0 1-64-19.84L58.88 857.6a124.8 124.8 0 0 1-37.12-172.16l240-375.04a128 128 0 0 1 172.16-37.76l183.04 118.4a124.8 124.8 0 0 1 37.12 172.16 32 32 0 1 1-53.76-34.56 64 64 0 0 0-17.92-83.84L400 327.04a64 64 0 0 0-83.84 18.56l-241.28 374.4a60.8 60.8 0 0 0 17.92 83.84l183.04 117.76a59.52 59.52 0 0 0 45.44 8.32 60.16 60.16 0 0 0 38.4-26.24l71.04-110.72a32 32 0 1 1 53.76 34.56l-71.04 110.08a124.16 124.16 0 0 1-78.08 54.4 128 128 0 0 1-26.88 3.2z" fill="#1296db" p-id="11106"></path><path d="M656.64 768a124.16 124.16 0 0 1-64-19.84l-185.6-115.2a128 128 0 0 1-37.76-172.16 32 32 0 0 1 53.76 34.56 64 64 0 0 0 18.56 83.84l183.04 117.76a64 64 0 0 0 83.84-18.56l240.64-374.4a60.8 60.8 0 0 0-17.92-83.84l-183.04-117.12a60.8 60.8 0 0 0-83.84 18.56L593.28 231.68a32 32 0 1 1-53.76-34.56l71.04-110.72a128 128 0 0 1 172.16-37.76l182.4 117.76a124.8 124.8 0 0 1 37.12 172.16l-240.64 374.4a128 128 0 0 1-104.96 55.04z" fill="#1296db" p-id="11107"></path></svg>